<svg width="78" height="76" viewBox="0 0 78 76" fill="#000" xmlns="http://www.w3.org/2000/svg">
<g id="umbrella">
<path id="Ellipse 2027 (Stroke)" fill-rule="evenodd" clip-rule="evenodd" d="M39 7.66667C19.5121 7.66667 4.16667 22.0453 4.16667 37H0.5C0.5 19.554 17.9871 4 39 4C60.013 4 77.5 19.554 77.5 37H73.8333C73.8333 22.0453 58.4879 7.66667 39 7.66667Z" fill="#000"/>
<path id="Ellipse 2027 (Stroke)_2" fill-rule="evenodd" clip-rule="evenodd" d="M11.5 31.4997C7.04701 31.4997 4.16667 34.3227 4.16667 36.9997H0.5C0.5 31.5765 5.82777 27.833 11.5 27.833C17.1722 27.833 22.5 31.5765 22.5 36.9997H18.8333C18.8333 34.3227 15.953 31.4997 11.5 31.4997Z" fill="#000"/>
<path id="Ellipse 2027 (Stroke)_3" fill-rule="evenodd" clip-rule="evenodd" d="M29.8335 31.4997C25.3805 31.4997 22.5002 34.3227 22.5002 36.9997H18.8335C18.8335 31.5765 24.1613 27.833 29.8335 27.833C35.5057 27.833 40.8335 31.5765 40.8335 36.9997H37.1668C37.1668 34.3227 34.2865 31.4997 29.8335 31.4997Z" fill="#000"/>
<path id="Ellipse 2027 (Stroke)_4" fill-rule="evenodd" clip-rule="evenodd" d="M48.1665 31.4997C43.7135 31.4997 40.8332 34.3227 40.8332 36.9997H37.1665C37.1665 31.5765 42.4943 27.833 48.1665 27.833C53.8387 27.833 59.1665 31.5765 59.1665 36.9997H55.4998C55.4998 34.3227 52.6195 31.4997 48.1665 31.4997Z" fill="#000"/>
<path id="Ellipse 2027 (Stroke)_5" fill-rule="evenodd" clip-rule="evenodd" d="M66.5 31.4997C62.047 31.4997 59.1667 34.3227 59.1667 36.9997H55.5C55.5 31.5765 60.8278 27.833 66.5 27.833C72.1722 27.833 77.5 31.5765 77.5 36.9997H73.8333C73.8333 34.3227 70.953 31.4997 66.5 31.4997Z" fill="#000"/>
<path id="Vector 8837 (Stroke)" fill-rule="evenodd" clip-rule="evenodd" d="M40.8332 0.333008V3.99967H37.1665V0.333008H40.8332Z" fill="#000"/>
<path id="Vector 8838 (Stroke)" fill-rule="evenodd" clip-rule="evenodd" d="M37.1667 66.333V33.333H40.8333V66.333C40.8333 71.3956 36.7293 75.4997 31.6667 75.4997C26.6041 75.4997 22.5 71.3956 22.5 66.333V62.6663H26.1667V66.333C26.1667 69.3706 28.6291 71.833 31.6667 71.833C34.7042 71.833 37.1667 69.3706 37.1667 66.333Z" fill="#000"/>
</g>
</svg>
