<svg width="78" height="64" viewBox="0 0 78 64" fill="#000"
  xmlns="http://www.w3.org/2000/svg">
  <g id="check folder">
    <path id="Rectangle 74 (Stroke)" fill-rule="evenodd" clip-rule="evenodd" d="M0.5 1.9681C0.5 0.955577 1.32081 0.134766 2.33333 0.134766H25.0317C25.6447 0.134766 26.2172 0.441118 26.5572 0.951149L32.997 10.611H75.6667C76.6792 10.611 77.5 11.4318 77.5 12.4443V61.3332C77.5 62.3457 76.6792 63.1665 75.6667 63.1665H2.33333C1.32081 63.1665 0.5 62.3457 0.5 61.3332V1.9681ZM4.16667 3.80143V59.4998H73.8333V14.2776H32.0159C31.4029 14.2776 30.8305 13.9713 30.4904 13.4612L24.0506 3.80143H4.16667Z" fill="#000"/>
    <path id="Vector 457 (Stroke)" fill-rule="evenodd" clip-rule="evenodd" d="M54.2646 27.7089L36.8043 45.1693C36.0883 45.8852 34.9275 45.8852 34.2115 45.1693L23.7354 34.6931L26.3281 32.1003L35.5079 41.2802L51.6719 25.1162L54.2646 27.7089Z" fill="#000"/>
  </g>
</svg>
