<svg width="78" height="78" viewBox="0 0 78 78" fill="#000"
  xmlns="http://www.w3.org/2000/svg">
  <g id="connection">
    <path id="Ellipse 52 (Stroke)" fill-rule="evenodd" clip-rule="evenodd" d="M38.9998 4.16667C36.9748 4.16667 35.3332 5.80829 35.3332 7.83333C35.3332 9.85838 36.9748 11.5 38.9998 11.5C41.0249 11.5 42.6665 9.85838 42.6665 7.83333C42.6665 5.80829 41.0249 4.16667 38.9998 4.16667ZM31.6665 7.83333C31.6665 3.78325 34.9497 0.5 38.9998 0.5C43.0499 0.5 46.3332 3.78325 46.3332 7.83333C46.3332 11.8834 43.0499 15.1667 38.9998 15.1667C34.9497 15.1667 31.6665 11.8834 31.6665 7.83333Z" fill="#000"/>
    <path id="Ellipse 52 (Stroke)_2" fill-rule="evenodd" clip-rule="evenodd" d="M13.3333 53.6667C11.3083 53.6667 9.66667 55.3083 9.66667 57.3333C9.66667 59.3584 11.3083 61 13.3333 61C15.3584 61 17 59.3584 17 57.3333C17 55.3083 15.3584 53.6667 13.3333 53.6667ZM6 57.3333C6 53.2832 9.28325 50 13.3333 50C17.3834 50 20.6667 53.2832 20.6667 57.3333C20.6667 61.3834 17.3834 64.6667 13.3333 64.6667C9.28325 64.6667 6 61.3834 6 57.3333Z" fill="#000"/>
    <path id="Ellipse 52 (Stroke)_3" fill-rule="evenodd" clip-rule="evenodd" d="M64.6668 53.6667C62.6418 53.6667 61.0002 55.3083 61.0002 57.3333C61.0002 59.3584 62.6418 61 64.6668 61C66.6919 61 68.3335 59.3584 68.3335 57.3333C68.3335 55.3083 66.6919 53.6667 64.6668 53.6667ZM57.3335 57.3333C57.3335 53.2832 60.6167 50 64.6668 50C68.7169 50 72.0002 53.2832 72.0002 57.3333C72.0002 61.3834 68.7169 64.6667 64.6668 64.6667C60.6167 64.6667 57.3335 61.3834 57.3335 57.3333Z" fill="#000"/>
    <path id="Ellipse 52 (Stroke)_4" fill-rule="evenodd" clip-rule="evenodd" d="M30.0165 24.333H47.9831C47.1338 20.1489 43.4346 16.9997 38.9998 16.9997C34.5651 16.9997 30.8659 20.1489 30.0165 24.333ZM26.1665 26.1663C26.1665 19.0787 31.9122 13.333 38.9998 13.333C46.0875 13.333 51.8332 19.0787 51.8332 26.1663C51.8332 27.1789 51.0124 27.9997 49.9998 27.9997H27.9998C26.9873 27.9997 26.1665 27.1789 26.1665 26.1663Z" fill="#000"/>
    <path id="Ellipse 52 (Stroke)_5" fill-rule="evenodd" clip-rule="evenodd" d="M4.35003 73.833H22.3166C21.4673 69.6489 17.7681 66.4997 13.3333 66.4997C8.89858 66.4997 5.19936 69.6489 4.35003 73.833ZM0.5 75.6663C0.5 68.5787 6.24568 62.833 13.3333 62.833C20.421 62.833 26.1667 68.5787 26.1667 75.6663C26.1667 76.6789 25.3459 77.4997 24.3333 77.4997H2.33333C1.32081 77.4997 0.5 76.6789 0.5 75.6663Z" fill="#000"/>
    <path id="Ellipse 52 (Stroke)_6" fill-rule="evenodd" clip-rule="evenodd" d="M55.6835 73.833H73.6501C72.8008 69.6489 69.1016 66.4997 64.6668 66.4997C60.2321 66.4997 56.5329 69.6489 55.6835 73.833ZM51.8335 75.6663C51.8335 68.5787 57.5792 62.833 64.6668 62.833C71.7545 62.833 77.5002 68.5787 77.5002 75.6663C77.5002 76.6789 76.6794 77.4997 75.6668 77.4997H53.6668C52.6543 77.4997 51.8335 76.6789 51.8335 75.6663Z" fill="#000"/>
    <path id="Ellipse 88 (Stroke)" fill-rule="evenodd" clip-rule="evenodd" d="M39.0002 40.8337C35.9626 40.8337 33.5002 43.2961 33.5002 46.3337C33.5002 49.3712 35.9626 51.8337 39.0002 51.8337C42.0377 51.8337 44.5002 49.3712 44.5002 46.3337C44.5002 43.2961 42.0377 40.8337 39.0002 40.8337ZM29.8335 46.3337C29.8335 41.271 33.9376 37.167 39.0002 37.167C44.0628 37.167 48.1668 41.271 48.1668 46.3337C48.1668 51.3963 44.0628 55.5003 39.0002 55.5003C33.9376 55.5003 29.8335 51.3963 29.8335 46.3337Z" fill="#000"/>
    <path id="Vector 351 (Stroke)" fill-rule="evenodd" clip-rule="evenodd" d="M40.8332 26.167V39.0003H37.1665V26.167H40.8332Z" fill="#000"/>
    <path id="Vector 352 (Stroke)" fill-rule="evenodd" clip-rule="evenodd" d="M18.1113 53.8144L30.9447 48.3145L32.389 51.6847L19.5557 57.1846L18.1113 53.8144Z" fill="#000"/>
    <path id="Vector 352 (Stroke)_2" fill-rule="evenodd" clip-rule="evenodd" d="M59.8887 53.8144L47.0553 48.3145L45.611 51.6847L58.4443 57.1846L59.8887 53.8144Z" fill="#000"/>
  </g>
</svg>
