<svg width="65" height="59" viewBox="0 0 65 59" fill="#000"
  xmlns="http://www.w3.org/2000/svg">
  <g id="thumb up">
    <path id="Rectangle 419 (Stroke)" fill-rule="evenodd" clip-rule="evenodd" d="M0 23.3333C0 22.3208 0.820811 21.5 1.83333 21.5H14.6667C15.6792 21.5 16.5 22.3208 16.5 23.3333V56.3333C16.5 57.3459 15.6792 58.1667 14.6667 58.1667H1.83333C0.820811 58.1667 0 57.3459 0 56.3333V23.3333ZM3.66667 25.1667V54.5H12.8333V25.1667H3.66667Z" fill="#000"/>
    <path id="Rectangle 419 (Stroke)_2" fill-rule="evenodd" clip-rule="evenodd" d="M39.8298 5.25554C37.9024 3.32816 34.6205 4.1029 33.7586 6.68876L31.0727 14.7463C30.993 14.9854 30.8648 15.2056 30.6962 15.3929L22.4462 24.5596C22.0985 24.9459 21.6032 25.1665 21.0835 25.1665H16.5002V54.4998H52.4216C54.1401 54.4998 55.6281 53.3062 56.0009 51.6286L60.394 31.8596C61.1573 28.4248 58.5436 25.1665 55.025 25.1665H40.3335C39.7774 25.1665 39.2514 24.9141 38.9034 24.4803C38.5555 24.0466 38.4232 23.4783 38.5438 22.9355L41.5555 9.38277C41.8275 8.15899 41.4554 6.88109 40.5689 5.99464L39.8298 5.25554ZM30.2801 5.52926C32.004 0.357543 38.5678 -1.19195 42.4225 2.66282L43.1616 3.40191C44.9345 5.17482 45.6788 7.73062 45.1349 10.1782L42.619 21.4998H55.025C60.8893 21.4998 65.2455 26.9303 63.9734 32.655L59.5803 52.424C58.8346 55.7793 55.8587 58.1665 52.4216 58.1665H14.6668C13.6543 58.1665 12.8335 57.3457 12.8335 56.3332V23.3332C12.8335 22.3206 13.6543 21.4998 14.6668 21.4998H20.267L27.7151 13.2242L30.2801 5.52926Z" fill="#000"/>
  </g>
</svg>
