<svg width="65" height="59" viewBox="0 0 65 59" fill="#000"
  xmlns="http://www.w3.org/2000/svg">
  <g id="thumb down">
    <path id="Rectangle 419 (Stroke)" fill-rule="evenodd" clip-rule="evenodd" d="M0 35.6667C0 36.6792 0.820811 37.5 1.83333 37.5H14.6667C15.6792 37.5 16.5 36.6792 16.5 35.6667V2.66666C16.5 1.65414 15.6792 0.833332 14.6667 0.833332H1.83333C0.820811 0.833332 0 1.65414 0 2.66666V35.6667ZM3.66667 33.8333V4.5H12.8333V33.8333H3.66667Z" fill="#000"/>
    <path id="Rectangle 419 (Stroke)_2" fill-rule="evenodd" clip-rule="evenodd" d="M39.8298 53.7445C37.9024 55.6718 34.6205 54.8971 33.7586 52.3112L31.0727 44.2537C30.993 44.0146 30.8648 43.7944 30.6962 43.6071L22.4462 34.4404C22.0985 34.0541 21.6032 33.8335 21.0835 33.8335H16.5002V4.50016H52.4216C54.1401 4.50016 55.6281 5.69378 56.0009 7.37142L60.394 27.1404C61.1573 30.5752 58.5436 33.8335 55.025 33.8335H40.3335C39.7774 33.8335 39.2514 34.0859 38.9034 34.5197C38.5555 34.9534 38.4232 35.5217 38.5438 36.0645L41.5555 49.6172C41.8275 50.841 41.4554 52.1189 40.5689 53.0054L39.8298 53.7445ZM30.2801 53.4707C32.004 58.6425 38.5678 60.192 42.4225 56.3372L43.1616 55.5981C44.9345 53.8252 45.6788 51.2694 45.1349 48.8218L42.619 37.5002H55.025C60.8893 37.5002 65.2455 32.0697 63.9734 26.345L59.5803 6.576C58.8346 3.22073 55.8587 0.833496 52.4216 0.833496H14.6668C13.6543 0.833496 12.8335 1.65431 12.8335 2.66683V35.6668C12.8335 36.6794 13.6543 37.5002 14.6668 37.5002H20.267L27.7151 45.7758L30.2801 53.4707Z" fill="#000"/>
  </g>
</svg>
