<svg width="88" height="88" viewBox="0 0 88 88" fill="#000"
  xmlns="http://www.w3.org/2000/svg">
  <path fill-rule="evenodd" clip-rule="evenodd" d="M80.6668 82.4997H7.3335V78.833H80.6668V82.4997Z" fill="#000"/>
  <path fill-rule="evenodd" clip-rule="evenodd" d="M60.5 25.6663C60.5 24.6538 61.3208 23.833 62.3333 23.833H77C78.0125 23.833 78.8333 24.6538 78.8333 25.6663V80.6663C78.8333 81.6789 78.0125 82.4997 77 82.4997H62.3333C61.3208 82.4997 60.5 81.6789 60.5 80.6663V25.6663ZM64.1667 27.4997V78.833H75.1667V27.4997H64.1667Z" fill="#000"/>
  <path fill-rule="evenodd" clip-rule="evenodd" d="M34.8335 44.0003C34.8335 42.9878 35.6543 42.167 36.6668 42.167H51.3335C52.346 42.167 53.1668 42.9878 53.1668 44.0003V80.667C53.1668 81.6795 52.346 82.5003 51.3335 82.5003H36.6668C35.6543 82.5003 34.8335 81.6795 34.8335 80.667V44.0003ZM38.5002 45.8337V78.8337H49.5002V45.8337H38.5002Z" fill="#000"/>
  <path fill-rule="evenodd" clip-rule="evenodd" d="M9.16699 62.3333C9.16699 61.3208 9.9878 60.5 11.0003 60.5H25.667C26.6795 60.5 27.5003 61.3208 27.5003 62.3333V80.6667C27.5003 81.6792 26.6795 82.5 25.667 82.5H11.0003C9.9878 82.5 9.16699 81.6792 9.16699 80.6667V62.3333ZM12.8337 64.1667V78.8333H23.8337V64.1667H12.8337Z" fill="#000"/>
  <path fill-rule="evenodd" clip-rule="evenodd" d="M42.1666 5.5H53.1666C54.1792 5.5 55 6.32081 55 7.33333V18.3333H51.3333V11.7594L12.2963 50.7964L9.70361 48.2036L48.7406 9.16667H42.1666V5.5Z" fill="#000"/>
</svg>
