<svg width="24" height="24" viewBox="0 0 24 24"  xmlns="http://www.w3.org/2000/svg">
<path style="fill: #000" fill-opacity="0.4" fill-rule="evenodd" clip-rule="evenodd" d="M5.85944 2.952C5.85944 4.583 4.54789 5.904 2.92922 5.904C1.31055 5.904 0 4.583 0 2.952C0 1.322 1.31155 0 2.92922 0C4.54689 0 5.85944 1.322 5.85944 2.952ZM0.477194 24H5.43126V8H0.477194V24ZM13.3516 8.00001H8.59959V24H13.3516V15.601C13.3516 13.351 14.387 12.012 16.3708 12.012C18.1926 12.012 19.069 13.298 19.069 15.601V24H24V13.869C24 9.58301 21.571 7.51201 18.1766 7.51201C14.7812 7.51201 13.3516 10.155 13.3516 10.155V8.00001Z" />
</svg>
