<svg xmlns="http://www.w3.org/2000/svg" width="24" height="24"><path fill-opacity=".6" fill-rule="evenodd" d="m9.522 15.135-.001-6.79 6.483 3.407zm14.237-7.967s-.234-1.666-.955-2.399c-.912-.963-1.935-.968-2.404-1.024-3.36-.245-8.396-.245-8.396-.245h-.012s-5.036 0-8.395.245c-.47.056-1.491.06-2.404 1.024C.474 5.503.24 7.168.24 7.168S0 9.124 0 11.079v1.834c0 1.956.24 3.913.24 3.913s.234 1.665.954 2.4c.913.963 2.112.932 2.646 1.031 1.92.187 8.16.243 8.16.243s5.042-.008 8.401-.252c.47-.056 1.492-.06 2.404-1.023.721-.735.955-2.4.955-2.4s.24-1.956.24-3.913v-1.834c0-1.955-.24-3.911-.24-3.911z" clip-rule="evenodd" style="fill:#000"/></svg>
