<svg width="24" height="24" viewBox="0 0 24 24" fill="none" xmlns="http://www.w3.org/2000/svg">
  <path d="M11 8H13V12H16V14H11V8Z" fill="currentColor"/>
  <path fill-rule="evenodd" clip-rule="evenodd" d="M3 12C3 7.02944 7.02944 3 12 3C16.9706 3 21 7.02944 21 12C21 16.9706 16.9706 21 12 21C7.02944 21 3 16.9706 3 12ZM5 12C5 8.13401 8.13401 5 12 5C15.866 5 19 8.13401 19 12C19 15.866 15.866 19 12 19C8.13401 19 5 15.866 5 12Z" fill="currentColor"/>
  <path fill-rule="evenodd" clip-rule="evenodd" d="M1.99198 5.0415L4.97593 2.37766C5.79993 1.64207 7.06423 1.71373 7.79983 2.53772L6.30785 3.86964L4.81587 5.20156L3.32389 6.53347L1.83192 7.86539C1.09632 7.04139 1.16798 5.77709 1.99198 5.0415Z" fill="currentColor"/>
  <path fill-rule="evenodd" clip-rule="evenodd" d="M21.908 5.0415L18.9241 2.37766C18.1001 1.64207 16.8358 1.71373 16.1002 2.53772L17.5922 3.86964L19.0842 5.20156L20.5761 6.53347L22.0681 7.86539C22.8037 7.04139 22.732 5.77709 21.908 5.0415Z" fill="currentColor"/>
</svg>
