<svg width="24" height="24" viewBox="0 0 24 24"  xmlns="http://www.w3.org/2000/svg">
<path d="M18.363 3.578C16.6617 1.91812 14.3769 0.992399 12 1C9.62314 0.992399 7.33827 1.91812 5.637 3.578C4.008 5.17 3 7.57 3 10C3 12.43 4.008 14.43 5.637 16.021C7.33817 17.6812 9.62302 18.6072 12 18.6V23L18.363 16.389C19.992 14.703 21 12.572 21 10C21 7.57 19.992 5.17 18.363 3.578ZM7.499 12C6.96843 11.9996 6.45976 11.7885 6.08487 11.413C5.70999 11.0376 5.4996 10.5286 5.5 9.998C5.5004 9.46744 5.71155 8.95876 6.08699 8.58387C6.46244 8.20899 6.97143 7.9986 7.502 7.999C8.03257 7.99927 8.5413 8.21029 8.91627 8.58564C9.29125 8.96099 9.50177 9.46994 9.5015 10.0005C9.50124 10.5311 9.29021 11.0398 8.91486 11.4148C8.53951 11.7898 8.03057 12.0003 7.5 12H7.499Z" />
</svg>
