<svg xmlns="http://www.w3.org/2000/svg" width="16" height="16" viewBox="0 0 16 16">
<path d="M5.33333 10.6667H2V8H2.66667L3.24613 7.09857L3.40714 5.67255C3.42046 5.57857 3.46583 5.49266 3.53502 5.43042C3.60421 5.36818 3.69263 5.33373 3.78423 5.33333H3.80952C3.96103 5.33351 4.10627 5.39599 4.2134 5.50709C4.32053 5.61819 4.38079 5.76881 4.38095 5.92593V7.11111H5.90476C6.10676 7.11135 6.30042 7.19467 6.44326 7.34279C6.5861 7.49092 6.66644 7.69175 6.66667 7.90124V9.28395C6.66627 9.65054 6.52567 10.002 6.27571 10.2612C6.02574 10.5204 5.68683 10.6663 5.33333 10.6667Z" fill="currentColor"/>
<path d="M10 7.33333H13.3333V8.66667H10V7.33333Z" fill="currentColor"/>
<path d="M13.3333 4.66667H10V6H13.3333V4.66667Z" fill="currentColor"/>
<path d="M10 10H13.3333V11.3333H10V10Z" fill="currentColor"/>
<path fill-rule="evenodd" clip-rule="evenodd" d="M1.33333 2C0.596954 2 0 2.59695 0 3.33333V12.6667C0 13.403 0.596954 14 1.33333 14H6.66667C6.79621 14 6.92143 13.9815 7.03985 13.9471C7.16108 14.3629 7.54506 14.6667 8 14.6667C8.45494 14.6667 8.83892 14.3629 8.96015 13.9471C9.07857 13.9815 9.20379 14 9.33333 14H14.6667C15.403 14 16 13.403 16 12.6667V3.33333C16 2.59695 15.403 2 14.6667 2H9.33333C8.59695 2 8 2.59695 8 3.33333C8 2.59695 7.40305 2 6.66667 2H1.33333ZM7.33333 3.33333H1.33333V12.6667H7.33333V3.33333ZM14.6667 3.33333H8.66667V12.6667H14.6667V3.33333Z" fill="currentColor"/>
</svg>