<svg width="24" height="24" viewBox="0 0 24 24" xmlns="http://www.w3.org/2000/svg">
<g id="email">
<path id="Vector" fill-rule="evenodd" clip-rule="evenodd" d="M2.00977 5C2.00977 4.44772 2.45748 4 3.00977 4H21C21.5523 4 22 4.44772 22 5V18C22 19.1046 21.1046 20 20 20H4C2.89543 20 2 19.1046 2 18V5.32422C2 5.2766 2.00333 5.22976 2.00977 5.18391V5ZM4 7.22376V18H20V7.2241L14.1215 13.1026C12.9499 14.2742 11.0504 14.2742 9.87885 13.1026L4 7.22376ZM5.57232 5.96765H18.428L12.7073 11.6884C12.3168 12.0789 11.6836 12.0789 11.2931 11.6884L5.57232 5.96765Z"/>
</g>
</svg>
