<svg xmlns="http://www.w3.org/2000/svg" width="24" height="24"><path fill-rule="evenodd" d="M14.738.5H8.672Q7.464.5 6.084.78q-1.395.325-2.688 1.384-1.884 1.814-1.884 4.038 0 1.84 1.33 3.227 1.27 1.486 3.692 1.516.458 0 .974-.058-.086.236-.186.518-.113.267-.113.667 0 .667.299 1.141.256.49.585.92-1.062.03-2.668.263a9.5 9.5 0 0 0-3.096 1.118q-1.312.779-1.813 1.808Q0 18.351 0 19.191q0 1.719 1.586 2.956 1.572 1.322 4.759 1.353 3.807-.06 5.827-1.813 1.945-1.694 1.946-3.89-.029-1.546-.71-2.504a10.3 10.3 0 0 0-1.681-1.724l-1.03-.838q-.221-.222-.458-.517-.278-.31-.278-.781 0-.487.27-.854.23-.354.503-.634.474-.412.893-.81.38-.398.72-.87.69-.972.718-2.592 0-.884-.201-1.548a5.7 5.7 0 0 0-1.23-2.018 4 4 0 0 0-.642-.516h1.871L14.738.503zm-3.325 16.472q.752.855.752 2.004 0 1.415-1.1 2.313-1.13.914-3.274.944-2.391-.03-3.767-1.06-1.45-1.035-1.45-2.624 0-.813.334-1.385.29-.547.71-.914.435-.354.855-.546.42-.177.652-.265a13 13 0 0 1 1.927-.428q.957-.089 1.187-.059.392 0 .682.03 1.695 1.18 2.492 1.99m-.984-8.887a3.1 3.1 0 0 1-.495 1.181q-.799.813-1.997.857a2.67 2.67 0 0 1-1.686-.576 4.7 4.7 0 0 1-1.204-1.403q-.963-1.771-.963-3.41-.03-1.24.66-2.244.817-.96 2.05-.99.93.03 1.649.546a4 4 0 0 1 1.132 1.418q.918 1.816.918 3.602 0 .415-.066 1.02zM20.8 10.016V6.844h-1.599v3.172h-3.2v1.586h3.2v3.173h1.6v-3.173H24v-1.586z" clip-rule="evenodd"/></svg>
