<svg width="16" height="14" viewBox="0 0 16 14"  xmlns="http://www.w3.org/2000/svg">
<path d="M15.5 4.19922C15.5 3.20466 15.1049 2.25083 14.4017 1.54757C13.6984 0.844307 12.7446 0.449219 11.75 0.449219C10.125 0.449219 8.525 1.49922 8 2.94922C7.475 1.47422 5.875 0.449219 4.25 0.449219C3.27252 0.448871 2.33354 0.830203 1.63309 1.51198C0.932632 2.19376 0.526066 3.12209 0.5 4.09922V4.19922C0.500735 4.58094 0.559748 4.96031 0.675 5.32422C1.525 8.49922 5.35 11.7242 8 13.9492C10.65 11.7492 14.45 8.27422 15.3 5.34922C15.3544 5.1775 15.3962 5.00203 15.425 4.82422V4.74922C15.4539 4.5756 15.4706 4.40017 15.475 4.22422L15.5 4.19922Z"/>
</svg>
