<svg xmlns="http://www.w3.org/2000/svg" width="24" height="24" fill="none"><path fill="#000" d="M23.786.214a.75.75 0 0 0-1.047 0L16.905 6.01a11.4 11.4 0 0 0-4.862-1.16C5.31 4.89.598 11.471.41 11.733l-.299.449.3.411a19.8 19.8 0 0 0 5.123 4.825L.3 22.654A.748.748 0 1 0 1.346 23.7l22.44-22.44a.75.75 0 0 0 0-1.047M7.555 11.994a4.49 4.49 0 0 1 4.488-4.487 4.45 4.45 0 0 1 2.58.823l-6.245 6.245a4.45 4.45 0 0 1-.823-2.58M19.56 7.62l-3.179 3.179a4.488 4.488 0 0 1-5.535 5.498L8.34 18.8c1.186.436 2.439.664 3.703.674 6.732 0 11.444-6.583 11.631-6.882l.3-.411-.3-.412A20 20 0 0 0 19.56 7.62"/></svg>
