<svg xmlns="http://www.w3.org/2000/svg" width="24" height="24"><path fill-rule="evenodd" d="M18.447 4.101a1.4 1.4 0 1 0 0 2.8 1.4 1.4 0 0 0 0-2.8m3.321 13.227a4.444 4.444 0 0 1-4.44 4.44H6.672a4.445 4.445 0 0 1-4.441-4.44V6.672a4.446 4.446 0 0 1 4.441-4.441h10.656a4.445 4.445 0 0 1 4.44 4.441zM17.328 0H6.672A6.68 6.68 0 0 0 0 6.672v10.656A6.68 6.68 0 0 0 6.672 24h10.656A6.68 6.68 0 0 0 24 17.328V6.672A6.68 6.68 0 0 0 17.328 0M12 16.144A4.15 4.15 0 0 1 7.854 12 4.15 4.15 0 0 1 12 7.854 4.15 4.15 0 0 1 16.144 12 4.147 4.147 0 0 1 12 16.144m0-10.52A6.384 6.384 0 0 0 5.624 12 6.384 6.384 0 0 0 12 18.376 6.385 6.385 0 0 0 18.376 12 6.384 6.384 0 0 0 12 5.624" clip-rule="evenodd"/></svg>
