<svg xmlns="http://www.w3.org/2000/svg" width="24" height="24"><path fill-rule="evenodd" d="M19.999 18.326c0-1.897-.72-3.627-1.896-4.936a7.36 7.36 0 0 0 1.842-4.872v-1.24h-.015a.61.61 0 0 0-.603-.508h-3.666a.61.61 0 0 0-.599.508l-.077 1.24a2.416 2.416 0 0 1-2.415 2.412v.015h-1.24c-.855 0-1.675.15-2.44.417V.612A.613.613 0 0 0 8.278 0H4.611A.613.613 0 0 0 4 .611v22.777c0 .336.273.612.611.612h3.693a.613.613 0 0 0 .612-.612v-5.063a2.415 2.415 0 0 1 2.412-2.415h1.296a2.42 2.42 0 0 1 2.412 2.415v5.063c0 .336.275.612.612.612h3.68a.61.61 0 0 0 .61-.612L20 19.56v-1.235z" clip-rule="evenodd"/></svg>
