<svg width="16" height="16" viewBox="0 0 16 16" xmlns="http://www.w3.org/2000/svg">
<path d="M9.33337 2.66659V1.33325H14.6667V6.66659H13.3334V3.60925L7.60937 9.33325L6.66671 8.39059L12.3907 2.66659H9.33337Z" />
<path d="M1.72442 14.2755C1.97437 14.5255 2.31323 14.6661 2.66671 14.6666H12C12.3535 14.6661 12.6924 14.5255 12.9423 14.2755C13.1923 14.0256 13.3329 13.6867 13.3334 13.3333V8.66659H12V13.3333H2.66671V3.99992H7.33337V2.66659H2.66671C2.31323 2.66706 1.97437 2.80769 1.72442 3.05764C1.47448 3.30758 1.33385 3.64644 1.33337 3.99992V13.3333C1.33385 13.6867 1.47448 14.0256 1.72442 14.2755Z" />
</svg>
