<svg xmlns="http://www.w3.org/2000/svg" width="24" height="24" fill="none"><path fill="currentColor" d="m22.224 3.635-1.86-1.859a3.505 3.505 0 0 0-4.956 0L12.31 4.875a3.505 3.505 0 0 0 0 4.957l.31.31.562.562 1.24-1.239-.563-.562-.31-.31a1.753 1.753 0 0 1 0-2.479l3.098-3.098a1.753 1.753 0 0 1 2.478 0l1.86 1.859a1.753 1.753 0 0 1 0 2.478l-3.099 3.098a1.75 1.75 0 0 1-2.199.227l-1.253 1.253a3.506 3.506 0 0 0 4.691-.24l3.099-3.099a3.505 3.505 0 0 0 0-4.956M10.45 17.886l-3.098 3.098a1.753 1.753 0 0 1-2.478 0l-1.86-1.859a1.75 1.75 0 0 1 0-2.478l3.099-3.098a1.753 1.753 0 0 1 2.479 0l.309.31.562.562 1.24-1.239-.563-.562-.31-.31a3.505 3.505 0 0 0-4.956 0l-3.099 3.098a3.505 3.505 0 0 0 0 4.957l1.86 1.859a3.506 3.506 0 0 0 4.957 0l3.097-3.099a3.506 3.506 0 0 0 .24-4.691l-1.253 1.252a1.75 1.75 0 0 1-.226 2.2"/><path fill="currentColor" d="M17.042 6.958a.877.877 0 0 1 0 1.24L8.058 17.18a.875.875 0 0 1-1.496-.62.88.88 0 0 1 .257-.62l8.984-8.983a.877.877 0 0 1 1.239 0"/></svg>
