<svg width="24" height="24" viewBox="0 0 24 24" xmlns="http://www.w3.org/2000/svg">
<path d="M2 12C2 9.79086 3.79086 8 6 8C7.35997 8 8.56143 8.6787 9.28414 9.71587L10.7133 8.28675C9.6145 6.89401 7.91165 6 6 6C2.68629 6 0 8.68629 0 12C0 15.3137 2.68629 18 6 18C7.91165 18 9.6145 17.106 10.7133 15.7133L9.28414 14.2841C8.56143 15.3213 7.35997 16 6 16C3.79086 16 2 14.2091 2 12Z"/>
<path d="M18 6C16.0883 6 14.3855 6.89401 13.2867 8.28675L14.7159 9.71587C15.4386 8.6787 16.64 8 18 8C20.2091 8 22 9.79086 22 12C22 14.2091 20.2091 16 18 16C16.64 16 15.4386 15.3213 14.7159 14.2841L13.2867 15.7133C14.3855 17.106 16.0883 18 18 18C21.3137 18 24 15.3137 24 12C24 8.68629 21.3137 6 18 6Z"/>
<path d="M18 11H6V13H18V11Z"/>
</svg>
