<svg width="18" height="22" viewBox="0 0 18 22" xmlns="http://www.w3.org/2000/svg">
  <path id="svg_1" d="m15.363065,2.57805c-1.7011,-1.66015 -3.9861,-2.58592 -6.363,-2.578c-2.37693,-0.00792 -4.66191,0.91785 -6.36301,2.578c-0.83364,0.80779 -1.49661,1.77475 -1.94958,2.84354c-0.45297,1.06878 -0.68673,2.21765 -0.68742,3.37846c-0.00834,2.4557 0.93709,4.8187 2.637,6.591l6.36301,6.609l6.363,-6.609c1.6999,-1.7723 2.6453,-4.1353 2.637,-6.591c-0.0007,-1.16081 -0.2345,-2.30968 -0.6874,-3.37846c-0.453,-1.06879 -1.116,-2.03575 -1.9496,-2.84354zm-6.363,9.422c-1.661,0 -3.00001,-1.34 -3.00001,-3.001c-0.00052,-0.39407 0.07672,-0.78436 0.22731,-1.14852c0.15059,-0.36416 0.37157,-0.69502 0.65026,-0.97362c0.27874,-0.2786 0.60964,-0.49947 0.97384,-0.64993c0.3642,-0.15047 0.7545,-0.22759 1.1486,-0.22693c1.661,0 3,1.34 3,2.999c0.0007,0.3942 -0.0765,0.7847 -0.227,1.149c-0.1505,0.3643 -0.3715,0.6954 -0.6502,0.9741c-0.2787,0.2788 -0.6096,0.4999 -0.9739,0.6505c-0.3643,0.1507 -0.7547,0.2279 -1.1489,0.2274z"/>
</svg>
