<svg width="24" height="24" viewBox="0 0 24 24"  xmlns="http://www.w3.org/2000/svg">
<path d="M18.363 3.578C16.6619 1.91785 14.3769 0.992077 12 1C9.62307 0.992077 7.33809 1.91785 5.63699 3.578C4.80335 4.38579 4.14038 5.35275 3.68741 6.42154C3.23444 7.49032 3.00068 8.63919 2.99999 9.8C2.99165 12.2557 3.93708 14.6187 5.63699 16.391L12 23L18.363 16.391C20.0629 14.6187 21.0083 12.2557 21 9.8C20.9993 8.63919 20.7655 7.49032 20.3126 6.42154C19.8596 5.35275 19.1966 4.38579 18.363 3.578ZM12 13C10.339 13 8.99999 11.66 8.99999 9.999C8.99947 9.60493 9.07671 9.21464 9.2273 8.85048C9.37789 8.48632 9.59887 8.15546 9.87756 7.87686C10.1563 7.59826 10.4872 7.37739 10.8514 7.22693C11.2156 7.07646 11.6059 6.99934 12 7C13.661 7 15 8.34 15 9.999C15.0007 10.3932 14.9235 10.7837 14.773 11.148C14.6225 11.5123 14.4015 11.8434 14.1228 12.1221C13.8441 12.4009 13.5132 12.622 13.1489 12.7726C12.7846 12.9233 12.3942 13.0005 12 13Z" />
</svg>
