<svg width="22" height="22" viewBox="0 0 22 22" xmlns="http://www.w3.org/2000/svg">
  <path d="M11 14C12.6569 14 14 12.6569 14 11C14 9.34315 12.6569 8 11 8C9.34315 8 8 9.34315 8 11C8 12.6569 9.34315 14 11 14Z"/>
  <path fill-rule="evenodd" clip-rule="evenodd" d="M12.125 18.9215C15.643 18.4264 18.4264 15.643 18.9215 12.125H21.875V9.875H18.9215C18.4264 6.35696 15.643 3.5736 12.125 3.07848V0.125H9.875V3.07848C6.35696 3.5736 3.5736 6.35696 3.07848 9.875H0.125V12.125H3.07848C3.5736 15.643 6.35696 18.4264 9.875 18.9215V21.875H12.125V18.9215ZM11 17C14.3137 17 17 14.3137 17 11C17 7.68629 14.3137 5 11 5C7.68629 5 5 7.68629 5 11C5 14.3137 7.68629 17 11 17Z"/>
</svg>
