<svg width="24" height="24" viewBox="0 0 24 24"  xmlns="http://www.w3.org/2000/svg">
<path fill-rule="evenodd" clip-rule="evenodd" d="M4.00211 15.1855C3.94503 17.4179 4.90163 19.6403 6.77048 21.1901C9.77412 23.6808 14.2259 23.6808 17.2296 21.1901C19.0987 19.6401 20.0553 17.4173 19.9979 15.1845C19.9993 15.1232 20 15.0617 20 15C20 13.4191 19.5414 11.9452 18.75 10.7043V6.48C18.75 2.90119 15.7279 0 12 0C8.2721 0 5.25002 2.90119 5.25002 6.48V10.7042C4.4586 11.9452 4 13.419 4 15C4 15.062 4.0007 15.1238 4.00211 15.1855ZM12 17C10.8954 17 10 16.1046 10 15C10 13.8954 10.8954 13 12 13C13.1046 13 14 13.8954 14 15C14 16.1046 13.1046 17 12 17ZM16.25 8.22103C15.0186 7.44741 13.5616 7 12 7C10.4384 7 8.98137 7.44741 7.75 8.22103V6.48C7.75 4.22668 9.65279 2.4 12 2.4C14.3472 2.4 16.25 4.22668 16.25 6.48V8.22103Z" fill="black"/>
</svg>
