<svg width="24" height="24" viewBox="0 0 24 24"  xmlns="http://www.w3.org/2000/svg">
<path d="M12 0.75C10.0109 0.75 8.10322 1.54018 6.6967 2.9467C5.29018 4.35322 4.5 6.26088 4.5 8.25C4.5 15 12 23.25 12 23.25C12 23.25 19.5 15 19.5 8.25C19.5 6.26088 18.7098 4.35322 17.3033 2.9467C15.8968 1.54018 13.9891 0.75 12 0.75ZM12 11.25C11.4067 11.25 10.8266 11.0741 10.3333 10.7444C9.83994 10.4148 9.45542 9.94623 9.22836 9.39805C9.0013 8.84987 8.94189 8.24667 9.05764 7.66473C9.1734 7.08279 9.45912 6.54824 9.87868 6.12868C10.2982 5.70912 10.8328 5.4234 11.4147 5.30764C11.9967 5.19189 12.5999 5.2513 13.1481 5.47836C13.6962 5.70542 14.1648 6.08994 14.4944 6.58329C14.8241 7.07664 15 7.65666 15 8.25C15 9.04565 14.6839 9.80871 14.1213 10.3713C13.5587 10.9339 12.7956 11.25 12 11.25Z" />
</svg>
