<svg width="24" height="24" viewBox="0 0 24 24"  xmlns="http://www.w3.org/2000/svg">
<path d="M19.35 4.5H4.65C3.61566 4.5 2.62368 4.91089 1.89228 5.64228C1.16089 6.37368 0.75 7.36566 0.75 8.4V15.6C0.75 16.1122 0.850876 16.6193 1.04687 17.0925C1.24286 17.5656 1.53014 17.9956 1.89228 18.3577C2.25443 18.7199 2.68436 19.0071 3.15753 19.2031C3.6307 19.3991 4.13784 19.5 4.65 19.5H19.35C20.3843 19.5 21.3763 19.0891 22.1077 18.3577C22.8391 17.6263 23.25 16.6343 23.25 15.6V8.4C23.25 7.36566 22.8391 6.37368 22.1077 5.64228C21.3763 4.91089 20.3843 4.5 19.35 4.5ZM9 15.75V8.25L16.5 12L9 15.75Z" />
</svg>
