<svg width="21" height="18" viewBox="0 0 21 18" xmlns="http://www.w3.org/2000/svg">
<path d="M7.84365 7.67297L3.51666 11.5015L0 6.79234L1.57527 5.73851L2.81008 7.13434C3.28519 5.1241 4.45054 3.32662 6.11796 2.03214C7.78537 0.737668 9.68106 0.0217528 11.8234 0C16.948 0 20.9997 4.24114 20.9997 9.16966C21.0095 10.3319 20.7789 11.4844 20.3212 12.5599C19.8635 13.6355 19.188 14.6127 18.3339 15.4345C17.4799 16.2564 16.4643 16.9064 15.3466 17.3468C14.2288 17.7872 13.0312 18.0092 11.8234 17.9997C9.32197 18.0071 6.91843 17.0651 5.13416 15.3782L6.63202 13.9379C8.02002 15.241 9.88415 15.9679 11.8234 15.962C12.7531 15.9717 13.6756 15.8027 14.5365 15.4648C15.3975 15.1269 16.1797 14.6269 16.8372 13.9943C17.4947 13.3616 18.0142 12.6089 18.3654 11.7804C18.7165 10.952 18.8922 10.0643 18.8821 9.16966C18.8821 5.36493 15.7805 2.0377 11.8234 2.0377C10.175 2.0591 8.75764 2.60923 7.47095 3.60092C6.30191 4.5926 5.27831 5.96912 4.89664 7.51233L6.41003 6.17322L7.84365 7.67297Z" />
</svg>
