<svg xmlns="http://www.w3.org/2000/svg" width="24" height="24" fill="none"><path fill="#000" d="M22.724 11.662C22.552 11.415 18.207 6 12 6S1.448 11.415 1.276 11.662L1 12l.276.338C1.448 12.586 5.793 18 12 18s10.552-5.415 10.724-5.661L23 12zM12 15.539a4.5 4.5 0 0 1-2.299-.623 3.8 3.8 0 0 1-1.524-1.657 3.32 3.32 0 0 1-.235-2.133 3.6 3.6 0 0 1 1.132-1.89 4.3 4.3 0 0 1 2.119-1.011 4.6 4.6 0 0 1 2.39.21c.757.28 1.403.753 1.858 1.36.454.607.697 1.32.697 2.051 0 .98-.436 1.919-1.212 2.611S13.097 15.539 12 15.539"/></svg>
