<svg xmlns="http://www.w3.org/2000/svg" width="24" height="24"><path d="M11.99.5c-.962 0-1.898.193-2.784.572a7.2 7.2 0 0 0-2.274 1.541 7.2 7.2 0 0 0-1.539 2.272 7 7 0 0 0-.57 2.773q-.002.706-.03 1.363l-.375-.087a1.86 1.86 0 0 0-1.556.338c-.337.26-.574.632-.666 1.045a2.014 2.014 0 0 0 1.271 2.324l1.125.452c-.745 2.274-2.117 2.71-3.042 3.004a5 5 0 0 0-.659.244c-.803.397-.89 1.07-.89 1.341 0 .519.247.992.694 1.333.223.17.5.31.845.427.47.162 1.016.264 1.459.346a3 3 0 0 0 .106.516c.22.735.683 1.065 1.034 1.211.332.14.676.155.905.155.225 0 .462-.017.713-.036.27-.02.548-.04.823-.04.426 0 .743.05.97.155.31.143.64.335.99.54.97.567 2.072 1.211 3.461 1.211 1.39 0 2.49-.644 3.462-1.212.349-.204.678-.396.99-.54.226-.103.543-.154.969-.154.275 0 .553.02.823.04.251.019.488.036.713.036.23 0 .573-.016.905-.155.35-.146.815-.476 1.034-1.21a3.3 3.3 0 0 0 .106-.517c.443-.082.989-.184 1.46-.346.345-.118.62-.258.844-.427.447-.341.694-.814.694-1.333 0-.27-.087-.944-.89-1.34-.202-.1-.414-.167-.66-.245-.924-.294-2.296-.73-3.04-3.004l1.124-.452a2.014 2.014 0 0 0 1.27-2.324 1.83 1.83 0 0 0-.665-1.045 1.87 1.87 0 0 0-1.556-.338l-.375.087a33 33 0 0 1-.03-1.363 7 7 0 0 0-.575-2.776 7.2 7.2 0 0 0-1.547-2.271 7.3 7.3 0 0 0-2.28-1.54A7.1 7.1 0 0 0 11.99.5"/></svg>
