<svg xmlns="http://www.w3.org/2000/svg" width="24" height="24"><path fill-rule="evenodd" d="M23.998 4.75a10 10 0 0 1-2.828.754 4.83 4.83 0 0 0 2.165-2.653c-.951.55-2.005.949-3.126 1.164A4.98 4.98 0 0 0 16.615 2.5c-3.178 0-5.514 2.89-4.796 5.89-4.092-.2-7.721-2.11-10.149-5.012-1.29 2.155-.669 4.977 1.524 6.404a5 5 0 0 1-2.23-.6c-.053 2.222 1.582 4.299 3.949 4.763a5.1 5.1 0 0 1-2.224.082c.627 1.906 2.445 3.293 4.6 3.332A10.1 10.1 0 0 1 0 19.345 14.2 14.2 0 0 0 7.548 21.5c9.142 0 14.307-7.523 13.995-14.269A9.9 9.9 0 0 0 24 4.748z" clip-rule="evenodd"/></svg>
