<svg xmlns="http://www.w3.org/2000/svg" width="16" height="15" fill="none"><path d="M5.926 6.3 2.657 9.28 0 5.616l1.235-.82.888 1.086a7.12 7.12 0 0 1 2.5-3.968A7.24 7.24 0 0 1 9.066.333C12.938.333 16 3.632 16 7.465c.007.904-.167 1.8-.513 2.637a6.8 6.8 0 0 1-1.501 2.236 6.9 6.9 0 0 1-2.258 1.487 6.9 6.9 0 0 1-2.661.508 7.22 7.22 0 0 1-5.055-2.04l1.132-1.12a5.62 5.62 0 0 0 3.923 1.575 5.3 5.3 0 0 0 2.05-.387 5.3 5.3 0 0 0 1.738-1.144 5.2 5.2 0 0 0 1.154-1.721 5.2 5.2 0 0 0 .39-2.031c0-2.96-2.343-5.547-5.332-5.547a5.63 5.63 0 0 0-3.422 1.216A5.54 5.54 0 0 0 3.7 6.176l1.143-1.042z"/></svg>
