<svg xmlns="http://www.w3.org/2000/svg" width="24" height="24"><g clip-path="url(#clip0)"><path d="M14.975 2.26v5.27c-.017.333.025.668.123.987a.74.74 0 0 0 .782.494c.454 0 .906-.288 1.36-.825v.741h1.234V2.26h-1.235v5.105c-.288.37-.535.576-.782.576-.165 0-.247-.082-.288-.288V2.26zm-2.8 6.793a1.63 1.63 0 0 0 1.4-.7 2.65 2.65 0 0 0 .37-1.565V4.442a2.66 2.66 0 0 0-.37-1.565 1.68 1.68 0 0 0-1.4-.7 1.63 1.63 0 0 0-1.399.7 2.65 2.65 0 0 0-.37 1.565v2.346a2.65 2.65 0 0 0 .37 1.564 1.68 1.68 0 0 0 1.4.7M11.6 4.195c0-.618.206-.906.576-.906.371 0 .577.288.577.906v2.8c0 .617-.206.946-.577.946-.37 0-.576-.33-.576-.947zM8.76 8.97V5.348l1.605-5.352H9.006L8.1 3.495l-.947-3.5h-1.4c.247.742.536 1.565.865 2.512q.499 1.396.825 2.84V8.97zm12.513 2.1a2.3 2.3 0 0 0-1.358-.618c-1.647-.165-4.117-.288-7.41-.288a66 66 0 0 0-7.41.288 2.6 2.6 0 0 0-1.359.618 2.42 2.42 0 0 0-.782 1.317c-.247 1.029-.329 2.593-.329 4.693a25.3 25.3 0 0 0 .33 4.693c.11.512.385.974.781 1.317.371.352.85.57 1.36.618 2.462.234 4.936.33 7.41.288a66 66 0 0 0 7.41-.288 2.1 2.1 0 0 0 1.358-.618 2.42 2.42 0 0 0 .782-1.317c.247-1.03.33-2.594.33-4.693a25.3 25.3 0 0 0-.33-4.693 2.52 2.52 0 0 0-.783-1.317m-13.05 2.676h-1.44v7.615H5.424v-7.616h-1.4V12.47h4.158v1.275zm3.582 7.615h-1.192v-.74c-.494.534-.947.824-1.36.824a.74.74 0 0 1-.781-.494 2.9 2.9 0 0 1-.124-.988v-5.23h1.235v5.31c.041.207.123.289.288.289.247 0 .494-.206.782-.577v-5.022h1.193zm4.57-2.017c.024.443-.017.887-.124 1.317a.925.925 0 0 1-.947.741 1.69 1.69 0 0 1-1.235-.74v.659h-1.194v-8.85h1.194v2.923a1.56 1.56 0 0 1 1.235-.741.924.924 0 0 1 .947.74c.104.432.146.875.123 1.318zm4.528-1.07h-2.388v1.151c0 .618.206.906.618.906.288 0 .453-.165.535-.494 0-.083.041-.37.041-.825h1.235v.164q.03.395-.041.783a1.85 1.85 0 0 1-.288.74 1.834 1.834 0 0 1-2.882 0 2.65 2.65 0 0 1-.37-1.564v-2.302a2.65 2.65 0 0 1 .37-1.564 1.7 1.7 0 0 1 1.44-.7 1.63 1.63 0 0 1 1.4.7c.282.47.412 1.017.37 1.564z"/><path d="M19.092 15.722c-.413 0-.618.287-.618.905v.618h1.194v-.618c.04-.577-.165-.905-.576-.905m-4.446 0a.86.86 0 0 0-.618.287v4.035a.86.86 0 0 0 .618.288c.329 0 .535-.288.535-.906v-2.84c0-.536-.165-.864-.535-.864"/></g></svg>
